<svg xmlns="http://www.w3.org/2000/svg" width="24" height="25" fill="none" style=""><rect id="backgroundrect" width="100%" height="100%" x="0" y="0" fill="none" stroke="none"/>

<g class="currentLayer" style=""><title>Layer 1</title><path d="M11.99 2.73529C6.47 2.73529 2 7.21529 2 12.7353C2 18.2553 6.47 22.7353 11.99 22.7353C17.52 22.7353 22 18.2553 22 12.7353C22 7.21529 17.52 2.73529 11.99 2.73529ZM18.92 8.73529H15.97C15.657 7.49675 15.1936 6.30119 14.59 5.17529C16.4141 5.80329 17.9512 7.06701 18.92 8.73529ZM12 4.77529C12.83 5.97529 13.48 7.30529 13.91 8.73529H10.09C10.52 7.30529 11.17 5.97529 12 4.77529ZM4.26 14.7353C4.1 14.0953 4 13.4253 4 12.7353C4 12.0453 4.1 11.3753 4.26 10.7353H7.64C7.56 11.3953 7.5 12.0553 7.5 12.7353C7.5 13.4153 7.56 14.0753 7.64 14.7353H4.26ZM5.08 16.7353H8.03C8.35 17.9853 8.81 19.1853 9.41 20.2953C7.58397 19.6707 6.04583 18.4061 5.08 16.7353ZM8.03 8.73529H5.08C6.04583 7.06447 7.58397 5.79986 9.41 5.17529C8.80643 6.30119 8.34298 7.49675 8.03 8.73529ZM12 20.6953C11.17 19.4953 10.52 18.1653 10.09 16.7353H13.91C13.48 18.1653 12.83 19.4953 12 20.6953ZM14.34 14.7353H9.66C9.57 14.0753 9.5 13.4153 9.5 12.7353C9.5 12.0553 9.57 11.3853 9.66 10.7353H14.34C14.43 11.3853 14.5 12.0553 14.5 12.7353C14.5 13.4153 14.43 14.0753 14.34 14.7353ZM14.59 20.2953C15.19 19.1853 15.65 17.9853 15.97 16.7353H18.92C17.9512 18.4036 16.4141 19.6673 14.59 20.2953ZM16.36 14.7353C16.44 14.0753 16.5 13.4153 16.5 12.7353C16.5 12.0553 16.44 11.3953 16.36 10.7353H19.74C19.9 11.3753 20 12.0453 20 12.7353C20 13.4253 19.9 14.0953 19.74 14.7353H16.36Z" fill="#e3cd8e" id="svg_1" class="selected" fill-opacity="1"/></g></svg>