<svg width="80" height="69" viewBox="0 0 80 69" fill="none" xmlns="http://www.w3.org/2000/svg">
<g clip-path="url(#clip0_18896_687)">
<path d="M31.4266 0.839355L20.3105 12.0866V28.2508L31.4266 39.1447H47.6572L59.0393 28.1625V12.5282L48.012 0.839355H31.4266ZM54.0134 25.7187L45.4399 33.9922H33.2596L25.4251 26.602V14.1181L33.7326 5.40302H46.0016L54.043 14.1181V25.7187H54.0134Z" fill="url(#paint0_linear_18896_687)"/>
<path d="M4.61197 48.7136V47.212C4.61197 46.5348 4.28677 46.1815 3.6068 46.1815H3.25203C2.60163 46.1815 2.27642 46.5053 2.27642 47.212V50.0091C2.27642 50.3329 2.33555 50.539 2.45381 50.6568C2.57206 50.7746 2.77901 50.9218 3.07465 51.069L5.23282 52.2173C5.70584 52.4823 6.03104 52.6884 6.23799 52.8356C6.44494 52.9828 6.59276 53.1595 6.71101 53.3656C6.82927 53.5717 6.8884 53.9839 6.8884 54.5727V58.2531C6.8884 60.1669 5.97191 61.1091 4.13895 61.1091H2.71988C0.886918 61.1091 0 60.0786 0 57.9881V57.1343H2.27642V58.047C2.27642 58.6947 2.63119 59.0481 3.31116 59.0481H3.72506C4.31633 59.0481 4.61197 58.7242 4.61197 58.047V55.1616C4.61197 54.8377 4.55285 54.6316 4.43459 54.5138C4.31633 54.3961 4.10939 54.2488 3.81375 54.1016L1.65558 52.8945C1.18256 52.6295 0.82779 52.4234 0.620843 52.2467C0.413895 52.0701 0.266075 51.8345 0.14782 51.5695C0.0591279 51.3045 0 50.9218 0 50.4801V47.0648C0 45.1215 0.916482 44.1499 2.71988 44.1499H4.13895C5.97191 44.1499 6.85883 45.1215 6.85883 47.0648V48.7136H4.61197Z" fill="white"/>
<path d="M16.1713 44.1499V57.8998C16.1713 60.0491 15.2548 61.1091 13.4218 61.1091H11.5002C9.66719 61.1091 8.78027 60.0197 8.78027 57.8703V44.1499H11.0567V57.9587C11.0567 58.6947 11.3819 59.0775 12.0619 59.0775H12.9784C13.5992 59.0775 13.8948 58.6947 13.8948 57.9587V44.1499H16.1713Z" fill="white"/>
<path d="M18.3001 44.1499H22.7642C24.5085 44.1499 25.3659 45.1215 25.3659 47.0648V51.2457C25.3659 52.7178 24.9224 53.66 24.0059 54.0427L25.6024 61.1091H23.4442L21.9364 54.2488H20.5469V61.1091H18.2705V44.1499H18.3001ZM20.5765 52.3351H22.0843C22.7642 52.3351 23.0894 51.9229 23.0894 51.0984V47.4475C23.0894 46.6231 22.7642 46.2109 22.0843 46.2109H20.5765V52.3351Z" fill="white"/>
<path d="M31.5154 61.1091H29.239V54.8672L26.46 44.1499H28.7068L30.4215 51.5107H30.4807L32.018 44.1499H34.2648L31.5154 54.8672V61.1091Z" fill="white"/>
<path d="M37.2803 61.1091H35.0039V47.0648C35.0039 45.1215 35.9204 44.1499 37.7238 44.1499H39.4385C41.2715 44.1499 42.1584 45.1215 42.1584 47.0648V61.1091H39.882V54.8966H37.2803V61.1091ZM39.882 52.8356V47.1825C39.882 46.5348 39.5568 46.1815 38.8768 46.1815H38.2559C37.6055 46.1815 37.2508 46.5053 37.2508 47.1825V52.8356H39.882Z" fill="white"/>
<path d="M52.328 48.7136V47.212C52.328 46.5348 52.0028 46.1815 51.3228 46.1815H50.9681C50.3177 46.1815 49.9925 46.5053 49.9925 47.212V50.0091C49.9925 50.3329 50.0516 50.539 50.1698 50.6568C50.2881 50.7746 50.4951 50.9218 50.7907 51.069L52.9489 52.2173C53.4219 52.4823 53.7471 52.6884 53.954 52.8356C54.161 52.9828 54.3088 53.1595 54.4271 53.3656C54.5453 53.5717 54.6044 53.9839 54.6044 54.5727V58.2531C54.6044 60.1669 53.688 61.1091 51.855 61.1091H50.4655C48.6325 61.1091 47.7456 60.0786 47.7456 57.9881V57.1343H50.022V58.047C50.022 58.6947 50.3472 59.0481 51.0568 59.0481H51.4707C52.0619 59.0481 52.3576 58.7242 52.3576 58.047V55.1616C52.3576 54.8377 52.2984 54.6316 52.1802 54.5138C52.0619 54.3961 51.855 54.2488 51.5594 54.1016L49.4012 52.8945C48.9282 52.6295 48.5734 52.4234 48.3664 52.2467C48.1595 52.0701 48.0117 51.8345 47.8934 51.5695C47.8047 51.3045 47.7456 50.9218 47.7456 50.4801V47.0648C47.7456 45.1215 48.6621 44.1499 50.4655 44.1499H51.8846C53.7175 44.1499 54.6044 45.1215 54.6044 47.0648V48.7136H52.328Z" fill="white"/>
<path d="M60.1331 46.2109V61.1091H57.8567V46.2109H55.6689V44.1499H62.3208V46.2109H60.1331Z" fill="white"/>
<path d="M65.7798 61.1091H63.5034V47.0648C63.5034 45.1215 64.4199 44.1499 66.2233 44.1499H67.938C69.771 44.1499 70.6579 45.1215 70.6579 47.0648V61.1091H68.3815V54.8966H65.7798V61.1091ZM68.3815 52.8356V47.1825C68.3815 46.5348 68.0563 46.1815 67.3763 46.1815H66.7555C66.105 46.1815 65.7503 46.5053 65.7503 47.1825V52.8356H68.3815Z" fill="white"/>
<path d="M72.6682 44.1499H77.1324C78.8767 44.1499 79.734 45.1215 79.734 47.0648V51.2457C79.734 52.7178 79.2906 53.66 78.3741 54.0427L79.9705 61.1091H77.8124L76.3046 54.2488H74.9151V61.1091H72.6387V44.1499H72.6682ZM74.9447 52.3351H76.4524C77.1324 52.3351 77.4576 51.9229 77.4576 51.0984V47.4475C77.4576 46.6231 77.1028 46.2109 76.4524 46.2109H74.9447V52.3351Z" fill="white"/>
<path d="M17.4725 68.4406C17.4134 68.3817 17.3838 68.2933 17.3838 68.1756V63.553C17.3838 63.4353 17.4134 63.3764 17.4725 63.288C17.5316 63.2292 17.6203 63.1997 17.7386 63.1997C17.8568 63.1997 17.9159 63.2292 18.0046 63.288C18.0638 63.3469 18.0933 63.4353 18.0933 63.553V65.4963H21.2567V63.553C21.2567 63.4353 21.2862 63.3764 21.3454 63.288C21.4045 63.2292 21.4932 63.1997 21.6114 63.1997C21.7001 63.1997 21.7888 63.2292 21.8479 63.288C21.9071 63.3469 21.9366 63.4353 21.9366 63.553V68.1756C21.9366 68.2933 21.9071 68.3522 21.8479 68.4406C21.7888 68.4995 21.7001 68.5289 21.6114 68.5289C21.5227 68.5289 21.434 68.4995 21.3454 68.4406C21.2862 68.3817 21.2567 68.2933 21.2567 68.1756V66.144H18.0638V68.1756C18.0638 68.2639 18.0342 68.3522 17.9751 68.4406C17.9159 68.4995 17.8272 68.5289 17.709 68.5289C17.6203 68.5583 17.5316 68.5289 17.4725 68.4406Z" fill="white"/>
<path d="M26.3709 68.2637C25.957 68.0282 25.6318 67.7043 25.3953 67.2921C25.1588 66.8799 25.0405 66.4088 25.0405 65.8788C25.0405 65.3488 25.1588 64.8778 25.3953 64.4656C25.6318 64.0534 25.957 63.7295 26.3709 63.4939C26.7848 63.2584 27.2578 63.1406 27.79 63.1406C28.3221 63.1406 28.7951 63.2584 29.209 63.4939C29.6229 63.7295 29.9481 64.0534 30.1847 64.4656C30.4212 64.8778 30.5394 65.3488 30.5394 65.8788C30.5394 66.4088 30.4212 66.8799 30.1847 67.2921C29.9481 67.7043 29.6229 68.0282 29.209 68.2637C28.7951 68.4992 28.3221 68.617 27.79 68.617C27.2578 68.617 26.7848 68.4992 26.3709 68.2637ZM28.8247 67.7043C29.1203 67.5276 29.3864 67.2626 29.5638 66.9388C29.7412 66.6149 29.8299 66.2616 29.8299 65.8788C29.8299 65.4961 29.7412 65.1427 29.5638 64.8189C29.3864 64.495 29.1499 64.2595 28.8543 64.0828C28.5586 63.9061 28.2039 63.8178 27.79 63.8178C27.4056 63.8178 27.0509 63.9061 26.7257 64.0828C26.43 64.2595 26.164 64.5244 26.0161 64.8189C25.8388 65.1427 25.7501 65.4961 25.7501 65.8788C25.7501 66.2616 25.8388 66.6149 26.0161 66.9388C26.1935 67.2626 26.43 67.4982 26.7552 67.7043C27.0804 67.8809 27.4056 67.9693 27.79 67.9693C28.1743 67.9693 28.5291 67.8809 28.8247 67.7043Z" fill="white"/>
<path d="M33.7322 68.4406C33.6731 68.3817 33.6436 68.2933 33.6436 68.1756V63.553C33.6436 63.4647 33.6731 63.3764 33.7322 63.288C33.7914 63.2292 33.8801 63.1997 33.9688 63.1997C34.0574 63.1997 34.1461 63.2292 34.2348 63.288C34.294 63.3469 34.3235 63.4353 34.3235 63.553V67.8223H36.8069C36.8956 67.8223 36.9843 67.8517 37.073 67.9106C37.1321 67.9695 37.1617 68.0578 37.1617 68.1756C37.1617 68.2639 37.1321 68.3522 37.073 68.4406C37.0138 68.4995 36.9252 68.5289 36.8069 68.5289H33.9688C33.8801 68.5583 33.7914 68.5289 33.7322 68.4406Z" fill="white"/>
<path d="M40.1185 68.4406C40.0593 68.3817 40.0298 68.2933 40.0298 68.1756V63.553C40.0298 63.4353 40.0593 63.3764 40.1185 63.288C40.1776 63.2292 40.2663 63.1997 40.3846 63.1997H41.6262C42.1288 63.1997 42.6018 63.3175 43.0157 63.553C43.4296 63.7886 43.7253 64.083 43.9618 64.4952C44.1983 64.9074 44.287 65.349 44.287 65.879C44.287 66.3795 44.1687 66.8506 43.9618 67.2628C43.7253 67.675 43.4296 67.9695 43.0157 68.205C42.6018 68.4406 42.1584 68.5583 41.6262 68.5583H40.3846C40.2663 68.5583 40.2072 68.5289 40.1185 68.4406ZM41.6262 67.94C42.0106 67.94 42.3358 67.8517 42.6314 67.675C42.9271 67.4984 43.1636 67.2628 43.3409 66.939C43.5183 66.6151 43.5775 66.2912 43.5775 65.879C43.5775 65.4963 43.4888 65.1429 43.3409 64.8191C43.1636 64.5246 42.9271 64.2597 42.6314 64.083C42.3358 63.9063 41.981 63.818 41.6262 63.818H40.7393V67.8811H41.6262V67.94Z" fill="white"/>
<path d="M47.4798 68.4406C47.4207 68.3817 47.3911 68.2933 47.3911 68.1756V63.553C47.3911 63.4353 47.4207 63.3764 47.4798 63.288C47.5389 63.2292 47.6276 63.1997 47.7459 63.1997C47.8641 63.1997 47.9233 63.2292 48.012 63.288C48.0711 63.3469 48.1006 63.4353 48.1006 63.553V68.1756C48.1006 68.2639 48.0711 68.3522 48.012 68.4406C47.9528 68.4995 47.8641 68.5289 47.7459 68.5289C47.6276 68.5583 47.5685 68.5289 47.4798 68.4406Z" fill="white"/>
<path d="M51.5594 68.47C51.5003 68.4111 51.4707 68.3228 51.4707 68.205V63.5825C51.4707 63.4647 51.5003 63.4058 51.5594 63.3175C51.6185 63.2586 51.7072 63.2291 51.7959 63.2291C51.855 63.2291 51.8846 63.2291 51.9437 63.2586C52.0029 63.288 52.0324 63.3175 52.062 63.3469L55.0479 67.2923V63.553C55.0479 63.4353 55.0775 63.3764 55.1366 63.288C55.1958 63.2292 55.2844 63.1997 55.4027 63.1997C55.4914 63.1997 55.5801 63.2292 55.6392 63.288C55.6983 63.3469 55.7279 63.4353 55.7279 63.553V68.1756C55.7279 68.2933 55.6983 68.3522 55.6392 68.4406C55.5801 68.4994 55.4914 68.5289 55.4027 68.5289C55.3436 68.5289 55.314 68.5289 55.2549 68.4994C55.1958 68.47 55.1662 68.4406 55.1366 68.4111L52.1507 64.4658V68.1756C52.1507 68.2639 52.1211 68.3522 52.062 68.4406C52.0029 68.5289 51.9142 68.5289 51.7959 68.5289C51.7072 68.5583 51.6185 68.5289 51.5594 68.47Z" fill="white"/>
<path d="M63.237 65.9084C63.2961 65.9672 63.3257 66.0556 63.3257 66.1733V67.7927C63.3257 67.9105 63.2961 67.9988 63.2074 68.0577C62.7344 68.4405 62.1727 68.6466 61.5223 68.6466C61.0197 68.6466 60.5763 68.5288 60.1919 68.2932C59.778 68.0577 59.4824 67.7338 59.2459 67.2922C59.0094 66.88 58.8911 66.4089 58.8911 65.9084C58.8911 65.4078 59.0094 64.9367 59.2459 64.5245C59.4824 64.1123 59.8076 63.7885 60.1919 63.5235C60.6058 63.2879 61.0493 63.1702 61.5223 63.1702C61.8771 63.1702 62.1727 63.2291 62.4092 63.3174C62.6753 63.4057 62.9118 63.5529 63.1779 63.759C63.237 63.7885 63.2666 63.8474 63.2961 63.8768C63.3257 63.9062 63.3257 63.9651 63.3257 64.024C63.3257 64.1123 63.2961 64.2007 63.237 64.2596C63.1779 64.3184 63.0892 64.3479 63.0005 64.3479C62.9118 64.3479 62.8527 64.3184 62.764 64.2596C62.5866 64.1123 62.3797 63.9946 62.2023 63.9062C62.0249 63.8474 61.7884 63.7885 61.5223 63.7885C61.1675 63.7885 60.8423 63.8768 60.5467 64.0535C60.2511 64.2301 60.0145 64.4951 59.8372 64.819C59.6598 65.1428 59.5711 65.4962 59.5711 65.8789C59.5711 66.2617 59.6598 66.615 59.8372 66.9389C60.0145 67.2627 60.2511 67.4983 60.5467 67.7044C60.8423 67.881 61.1675 67.9694 61.5223 67.9694C61.9066 67.9694 62.2614 67.8516 62.6162 67.6161V66.4089H61.6701C61.5519 66.4089 61.4927 66.3794 61.404 66.3206C61.3449 66.2617 61.3154 66.1734 61.3154 66.085C61.3154 65.9967 61.3449 65.9084 61.404 65.8495C61.4632 65.7906 61.5519 65.7611 61.6701 65.7611H62.9414C63.0892 65.7906 63.1483 65.82 63.237 65.9084Z" fill="white"/>
<path d="M29.3569 16.297L35.4471 9.87842H43.9911L49.9926 16.297V24.6588L44.1685 30.1058H34.915L29.3569 24.7471V16.297Z" fill="url(#paint1_linear_18896_687)"/>
</g>
<defs>
<linearGradient id="paint0_linear_18896_687" x1="20.3095" y1="20.0079" x2="59.0545" y2="20.0079" gradientUnits="userSpaceOnUse">
<stop stop-color="#AD9044"/>
<stop offset="0.0437909" stop-color="#AD9044"/>
<stop offset="0.5073" stop-color="#D3B15D"/>
<stop offset="0.7238" stop-color="#E9D184"/>
<stop offset="0.9854" stop-color="#D6B154"/>
<stop offset="1" stop-color="#D6B154"/>
</linearGradient>
<linearGradient id="paint1_linear_18896_687" x1="29.3528" y1="20.0009" x2="50.005" y2="20.0009" gradientUnits="userSpaceOnUse">
<stop stop-color="#AD9044"/>
<stop offset="0.0437909" stop-color="#AD9044"/>
<stop offset="0.5073" stop-color="#D3B15D"/>
<stop offset="0.7238" stop-color="#E9D184"/>
<stop offset="0.9854" stop-color="#D6B154"/>
<stop offset="1" stop-color="#D6B154"/>
</linearGradient>
<clipPath id="clip0_18896_687">
<rect width="80" height="67.7778" fill="white" transform="translate(0 0.839355)"/>
</clipPath>
</defs>
</svg>
