<svg width="150" height="127" viewBox="0 0 150 127" fill="none" xmlns="http://www.w3.org/2000/svg">
<g clip-path="url(#clip0_18364_3245)">
<path d="M58.9246 0L38.082 21.0479V51.2973L58.9246 71.684H89.357L110.698 51.132V21.8744L90.0222 0H58.9246ZM101.275 46.5588L85.1995 62.0416H62.3614L47.6718 48.2118V24.8497L63.2483 8.54037H86.2528L101.33 24.8497V46.5588H101.275Z" fill="url(#paint0_linear_18364_3245)"/>
<path d="M8.64745 89.5912V86.7812C8.64745 85.5139 8.03769 84.8527 6.76275 84.8527H6.09756C4.87805 84.8527 4.26829 85.4588 4.26829 86.7812V92.0156C4.26829 92.6217 4.37916 93.0074 4.60089 93.2278C4.82262 93.4482 5.21064 93.7237 5.76497 93.9991L9.81153 96.148C10.6984 96.6439 11.3082 97.0296 11.6962 97.3051C12.0843 97.5806 12.3614 97.9112 12.5831 98.2969C12.8049 98.6826 12.9157 99.454 12.9157 100.556V107.443C12.9157 111.025 11.1973 112.788 7.76053 112.788H5.09978C1.66297 112.788 0 110.859 0 106.947V105.35H4.26829V107.058C4.26829 108.27 4.93348 108.931 6.20843 108.931H6.98448C8.09313 108.931 8.64745 108.325 8.64745 107.058V101.658C8.64745 101.052 8.53659 100.666 8.31486 100.446C8.09313 100.225 7.7051 99.9498 7.15078 99.6744L3.10421 97.4153C2.21729 96.9194 1.55211 96.5337 1.16408 96.2031C0.776053 95.8725 0.498891 95.4317 0.277162 94.9358C0.110865 94.4399 0 93.7237 0 92.8972V86.5057C0 82.8691 1.7184 81.0508 5.09978 81.0508H7.76053C11.1973 81.0508 12.8603 82.8691 12.8603 86.5057V89.5912H8.64745Z" fill="#100F0F"/>
<path d="M30.3215 81.0508V106.782C30.3215 110.804 28.6031 112.788 25.1663 112.788H21.5632C18.1264 112.788 16.4634 110.749 16.4634 106.727V81.0508H20.7317V106.892C20.7317 108.27 21.3415 108.986 22.6164 108.986H24.3348C25.4989 108.986 26.0532 108.27 26.0532 106.892V81.0508H30.3215Z" fill="#100F0F"/>
<path d="M34.3126 81.0508H42.6829C45.9534 81.0508 47.561 82.8691 47.561 86.5057V94.3297C47.561 97.0847 46.7295 98.8479 45.0111 99.5642L48.0044 112.788H43.9579L41.1308 99.9498H38.5255V112.788H34.2572V81.0508H34.3126ZM38.5809 96.3684H41.408C42.6829 96.3684 43.2927 95.597 43.2927 94.0542V87.222C43.2927 85.6792 42.6829 84.9078 41.408 84.9078H38.5809V96.3684Z" fill="#100F0F"/>
<path d="M59.0909 112.788H54.8226V101.107L49.612 81.0508H53.8249L57.0399 94.8256H57.1508L60.0333 81.0508H64.2461L59.0909 101.107V112.788Z" fill="#100F0F"/>
<path d="M69.9002 112.788H65.632V86.5057C65.632 82.8691 67.3504 81.0508 70.7317 81.0508H73.9468C77.3836 81.0508 79.0466 82.8691 79.0466 86.5057V112.788H74.7783V101.162H69.9002V112.788ZM74.7783 97.3051V86.7261C74.7783 85.5139 74.1685 84.8527 72.8936 84.8527H71.7295C70.51 84.8527 69.8448 85.4588 69.8448 86.7261V97.3051H74.7783Z" fill="#100F0F"/>
<path d="M98.1153 89.5912V86.7812C98.1153 85.5139 97.5055 84.8527 96.2306 84.8527H95.5654C94.3459 84.8527 93.7361 85.4588 93.7361 86.7812V92.0156C93.7361 92.6217 93.847 93.0074 94.0687 93.2278C94.2904 93.4482 94.6785 93.7237 95.2328 93.9991L99.2794 96.148C100.166 96.6439 100.776 97.0296 101.164 97.3051C101.552 97.5806 101.829 97.9112 102.051 98.2969C102.273 98.6826 102.384 99.454 102.384 100.556V107.443C102.384 111.025 100.665 112.788 97.2284 112.788H94.623C91.1862 112.788 89.5233 110.859 89.5233 106.947V105.35H93.7915V107.058C93.7915 108.27 94.4013 108.931 95.7317 108.931H96.5077C97.6164 108.931 98.1707 108.325 98.1707 107.058V101.658C98.1707 101.052 98.0598 100.666 97.8381 100.446C97.6164 100.225 97.2284 99.9498 96.674 99.6744L92.6275 97.4153C91.7406 96.9194 91.0754 96.5337 90.6873 96.2031C90.2993 95.8725 90.0221 95.4317 89.8004 94.9358C89.6341 94.4399 89.5233 93.7237 89.5233 92.8972V86.5057C89.5233 82.8691 91.2417 81.0508 94.623 81.0508H97.2838C100.721 81.0508 102.384 82.8691 102.384 86.5057V89.5912H98.1153Z" fill="#100F0F"/>
<path d="M112.749 84.9078V112.788H108.481V84.9078H104.379V81.0508H116.851V84.9078H112.749Z" fill="#100F0F"/>
<path d="M123.337 112.788H119.069V86.5057C119.069 82.8691 120.787 81.0508 124.169 81.0508H127.384C130.82 81.0508 132.483 82.8691 132.483 86.5057V112.788H128.215V101.162H123.337V112.788ZM128.215 97.3051V86.7261C128.215 85.5139 127.605 84.8527 126.33 84.8527H125.166C123.947 84.8527 123.282 85.4588 123.282 86.7261V97.3051H128.215Z" fill="#100F0F"/>
<path d="M136.253 81.0508H144.623C147.894 81.0508 149.501 82.8691 149.501 86.5057V94.3297C149.501 97.0847 148.67 98.8479 146.951 99.5642L149.945 112.788H145.898L143.071 99.9498H140.466V112.788H136.197V81.0508H136.253ZM140.521 96.3684H143.348C144.623 96.3684 145.233 95.597 145.233 94.0542V87.222C145.233 85.6792 144.568 84.9078 143.348 84.9078H140.521V96.3684Z" fill="#100F0F"/>
<path d="M32.7605 126.508C32.6497 126.397 32.5942 126.232 32.5942 126.012V117.361C32.5942 117.141 32.6497 117.031 32.7605 116.865C32.8714 116.755 33.0377 116.7 33.2594 116.7C33.4812 116.7 33.592 116.755 33.7583 116.865C33.8692 116.975 33.9246 117.141 33.9246 117.361V120.998H39.8559V117.361C39.8559 117.141 39.9113 117.031 40.0222 116.865C40.133 116.755 40.2993 116.7 40.5211 116.7C40.6874 116.7 40.8537 116.755 40.9645 116.865C41.0754 116.975 41.1308 117.141 41.1308 117.361V126.012C41.1308 126.232 41.0754 126.342 40.9645 126.508C40.8537 126.618 40.6874 126.673 40.5211 126.673C40.3548 126.673 40.1885 126.618 40.0222 126.508C39.9113 126.397 39.8559 126.232 39.8559 126.012V122.21H33.8692V126.012C33.8692 126.177 33.8138 126.342 33.7029 126.508C33.592 126.618 33.4257 126.673 33.204 126.673C33.0377 126.728 32.8714 126.673 32.7605 126.508Z" fill="#100F0F"/>
<path d="M49.4457 126.177C48.6696 125.736 48.0599 125.13 47.6164 124.359C47.173 123.587 46.9512 122.706 46.9512 121.714C46.9512 120.722 47.173 119.841 47.6164 119.069C48.0599 118.298 48.6696 117.692 49.4457 117.251C50.2217 116.81 51.1087 116.59 52.1064 116.59C53.1042 116.59 53.9911 116.81 54.7672 117.251C55.5433 117.692 56.153 118.298 56.5965 119.069C57.0399 119.841 57.2617 120.722 57.2617 121.714C57.2617 122.706 57.0399 123.587 56.5965 124.359C56.153 125.13 55.5433 125.736 54.7672 126.177C53.9911 126.618 53.1042 126.838 52.1064 126.838C51.1087 126.838 50.2217 126.618 49.4457 126.177ZM54.0466 125.13C54.6009 124.8 55.0998 124.304 55.4324 123.698C55.765 123.091 55.9313 122.43 55.9313 121.714C55.9313 120.998 55.765 120.337 55.4324 119.73C55.0998 119.124 54.6563 118.684 54.102 118.353C53.5477 118.022 52.8825 117.857 52.1064 117.857C51.3858 117.857 50.7206 118.022 50.1109 118.353C49.5566 118.684 49.0577 119.179 48.7805 119.73C48.4479 120.337 48.2816 120.998 48.2816 121.714C48.2816 122.43 48.4479 123.091 48.7805 123.698C49.1131 124.304 49.5566 124.744 50.1663 125.13C50.7761 125.461 51.3858 125.626 52.1064 125.626C52.8271 125.626 53.4923 125.461 54.0466 125.13Z" fill="#100F0F"/>
<path d="M63.2483 126.508C63.1375 126.397 63.082 126.232 63.082 126.012V117.361C63.082 117.196 63.1375 117.031 63.2483 116.865C63.3592 116.755 63.5255 116.7 63.6918 116.7C63.8581 116.7 64.0244 116.755 64.1907 116.865C64.3015 116.975 64.357 117.141 64.357 117.361V125.351H69.0133C69.1796 125.351 69.3459 125.406 69.5122 125.516C69.6231 125.626 69.6785 125.791 69.6785 126.012C69.6785 126.177 69.6231 126.342 69.5122 126.508C69.4013 126.618 69.235 126.673 69.0133 126.673H63.6918C63.5255 126.728 63.3592 126.673 63.2483 126.508Z" fill="#100F0F"/>
<path d="M75.2217 126.508C75.1109 126.397 75.0554 126.232 75.0554 126.012V117.361C75.0554 117.141 75.1109 117.031 75.2217 116.865C75.3326 116.755 75.4989 116.7 75.7206 116.7H78.0488C78.9911 116.7 79.878 116.92 80.6541 117.361C81.4301 117.802 81.9845 118.353 82.4279 119.124C82.8714 119.896 83.0377 120.722 83.0377 121.714C83.0377 122.651 82.816 123.532 82.4279 124.304C81.9845 125.075 81.4301 125.626 80.6541 126.067C79.878 126.508 79.0466 126.728 78.0488 126.728H75.7206C75.4989 126.728 75.388 126.673 75.2217 126.508ZM78.0488 125.571C78.7694 125.571 79.3791 125.406 79.9335 125.075C80.4878 124.744 80.9313 124.304 81.2639 123.698C81.5964 123.091 81.7073 122.485 81.7073 121.714C81.7073 120.998 81.541 120.337 81.2639 119.73C80.9313 119.179 80.4878 118.684 79.9335 118.353C79.3791 118.022 78.714 117.857 78.0488 117.857H76.3858V125.461H78.0488V125.571Z" fill="#100F0F"/>
<path d="M89.0244 126.508C88.9135 126.397 88.8581 126.232 88.8581 126.012V117.361C88.8581 117.141 88.9135 117.031 89.0244 116.865C89.1353 116.755 89.3016 116.7 89.5233 116.7C89.745 116.7 89.8559 116.755 90.0222 116.865C90.133 116.975 90.1885 117.141 90.1885 117.361V126.012C90.1885 126.177 90.133 126.342 90.0222 126.508C89.9113 126.618 89.745 126.673 89.5233 126.673C89.3016 126.728 89.1907 126.673 89.0244 126.508Z" fill="#100F0F"/>
<path d="M96.674 126.563C96.5632 126.453 96.5078 126.287 96.5078 126.067V117.416C96.5078 117.196 96.5632 117.086 96.674 116.92C96.7849 116.81 96.9512 116.755 97.1175 116.755C97.2284 116.755 97.2838 116.755 97.3947 116.81C97.5055 116.865 97.561 116.92 97.6164 116.975L103.215 124.359V117.361C103.215 117.141 103.271 117.031 103.381 116.865C103.492 116.755 103.659 116.7 103.88 116.7C104.047 116.7 104.213 116.755 104.324 116.865C104.435 116.975 104.49 117.141 104.49 117.361V126.012C104.49 126.232 104.435 126.342 104.324 126.508C104.213 126.618 104.047 126.673 103.88 126.673C103.769 126.673 103.714 126.673 103.603 126.618C103.492 126.563 103.437 126.508 103.381 126.453L97.7827 119.069V126.012C97.7827 126.177 97.7273 126.342 97.6164 126.508C97.5055 126.673 97.3392 126.673 97.1175 126.673C96.9512 126.728 96.7849 126.673 96.674 126.563Z" fill="#100F0F"/>
<path d="M118.57 121.769C118.681 121.879 118.736 122.045 118.736 122.265V125.295C118.736 125.516 118.681 125.681 118.514 125.791C117.627 126.508 116.574 126.893 115.355 126.893C114.412 126.893 113.581 126.673 112.86 126.232C112.084 125.791 111.53 125.185 111.086 124.359C110.643 123.587 110.421 122.706 110.421 121.769C110.421 120.832 110.643 119.951 111.086 119.179C111.53 118.408 112.14 117.802 112.86 117.306C113.636 116.865 114.468 116.645 115.355 116.645C116.02 116.645 116.574 116.755 117.018 116.92C117.517 117.086 117.96 117.361 118.459 117.747C118.57 117.802 118.625 117.912 118.681 117.967C118.736 118.022 118.736 118.133 118.736 118.243C118.736 118.408 118.681 118.573 118.57 118.684C118.459 118.794 118.293 118.849 118.126 118.849C117.96 118.849 117.849 118.794 117.683 118.684C117.35 118.408 116.962 118.188 116.63 118.022C116.297 117.912 115.854 117.802 115.355 117.802C114.69 117.802 114.08 117.967 113.525 118.298C112.971 118.628 112.528 119.124 112.195 119.73C111.863 120.337 111.696 120.998 111.696 121.714C111.696 122.43 111.863 123.091 112.195 123.698C112.528 124.304 112.971 124.744 113.525 125.13C114.08 125.461 114.69 125.626 115.355 125.626C116.075 125.626 116.741 125.406 117.406 124.965V122.706H115.632C115.41 122.706 115.299 122.651 115.133 122.54C115.022 122.43 114.967 122.265 114.967 122.1C114.967 121.934 115.022 121.769 115.133 121.659C115.244 121.549 115.41 121.494 115.632 121.494H118.015C118.293 121.549 118.404 121.604 118.57 121.769Z" fill="#100F0F"/>
<path d="M55.0444 28.927L66.4634 16.9154H82.4834L93.7362 28.927V44.5752L82.816 54.7685H65.4657L55.0444 44.7405V28.927Z" fill="url(#paint1_linear_18364_3245)"/>
</g>
<defs>
<linearGradient id="paint0_linear_18364_3245" x1="38.0802" y1="35.8718" x2="110.727" y2="35.8718" gradientUnits="userSpaceOnUse">
<stop stop-color="#AD9044"/>
<stop offset="0.0437909" stop-color="#AD9044"/>
<stop offset="0.5073" stop-color="#D3B15D"/>
<stop offset="0.7238" stop-color="#E9D184"/>
<stop offset="0.9854" stop-color="#D6B154"/>
<stop offset="1" stop-color="#D6B154"/>
</linearGradient>
<linearGradient id="paint1_linear_18364_3245" x1="55.0366" y1="35.8585" x2="93.7595" y2="35.8585" gradientUnits="userSpaceOnUse">
<stop stop-color="#AD9044"/>
<stop offset="0.0437909" stop-color="#AD9044"/>
<stop offset="0.5073" stop-color="#D3B15D"/>
<stop offset="0.7238" stop-color="#E9D184"/>
<stop offset="0.9854" stop-color="#D6B154"/>
<stop offset="1" stop-color="#D6B154"/>
</linearGradient>
<clipPath id="clip0_18364_3245">
<rect width="150" height="126.838" fill="white"/>
</clipPath>
</defs>
</svg>
