<svg width="21" height="21" viewBox="0 0 21 21" fill="none" xmlns="http://www.w3.org/2000/svg">
<path d="M10.6173 0.839355C5.09529 0.839355 0.618286 5.31636 0.618286 10.8384C0.618286 15.8284 4.27429 19.9644 9.05529 20.7174V13.7294H6.51529V10.8384H9.05529V8.63536C9.05529 6.12736 10.5483 4.74436 12.8313 4.74436C13.9253 4.74436 15.0713 4.93936 15.0713 4.93936V7.39836H13.8073C12.5673 7.39836 12.1793 8.17036 12.1793 8.96136V10.8364H14.9503L14.5073 13.7274H12.1793V20.7154C16.9603 19.9664 20.6163 15.8294 20.6163 10.8384C20.6163 5.31636 16.1393 0.839355 10.6173 0.839355V0.839355Z" fill="#E3C980"/>
</svg>
