<svg width="21" height="21" viewBox="0 0 21 21" fill="none" xmlns="http://www.w3.org/2000/svg">
<path d="M10.6138 7.5046C8.77759 7.5046 7.27908 9.00311 7.27908 10.8394C7.27908 12.6756 8.77759 14.1741 10.6138 14.1741C12.4501 14.1741 13.9486 12.6756 13.9486 10.8394C13.9486 9.00311 12.4501 7.5046 10.6138 7.5046ZM20.6156 10.8394C20.6156 9.45842 20.6281 8.09 20.5505 6.71157C20.473 5.11048 20.1077 3.68952 18.937 2.51873C17.7637 1.34544 16.3452 0.982696 14.7441 0.905143C13.3632 0.827591 11.9948 0.8401 10.6163 0.8401C9.2354 0.8401 7.86698 0.827591 6.48854 0.905143C4.88746 0.982696 3.4665 1.34794 2.29571 2.51873C1.12242 3.69203 0.759673 5.11048 0.682121 6.71157C0.604569 8.0925 0.617077 9.46092 0.617077 10.8394C0.617077 12.2178 0.604569 13.5887 0.682121 14.9671C0.759673 16.5682 1.12492 17.9892 2.29571 19.16C3.469 20.3333 4.88746 20.696 6.48854 20.7736C7.86948 20.8511 9.2379 20.8386 10.6163 20.8386C11.9973 20.8386 13.3657 20.8511 14.7441 20.7736C16.3452 20.696 17.7662 20.3308 18.937 19.16C20.1102 17.9867 20.473 16.5682 20.5505 14.9671C20.6306 13.5887 20.6156 12.2203 20.6156 10.8394V10.8394ZM10.6138 15.9703C7.77441 15.9703 5.48286 13.6788 5.48286 10.8394C5.48286 7.99994 7.77441 5.70839 10.6138 5.70839C13.4532 5.70839 15.7448 7.99994 15.7448 10.8394C15.7448 13.6788 13.4532 15.9703 10.6138 15.9703ZM15.9549 6.69656C15.292 6.69656 14.7566 6.16119 14.7566 5.49825C14.7566 4.8353 15.292 4.29994 15.9549 4.29994C16.6179 4.29994 17.1533 4.8353 17.1533 5.49825C17.1534 5.65567 17.1226 5.81158 17.0624 5.95705C17.0023 6.10253 16.914 6.23471 16.8027 6.34602C16.6914 6.45733 16.5592 6.54559 16.4137 6.60574C16.2683 6.66589 16.1124 6.69675 15.9549 6.69656V6.69656Z" fill="#E3C980"/>
</svg>
