<svg width="25" height="21" viewBox="0 0 25 21" fill="none" xmlns="http://www.w3.org/2000/svg">
<path d="M24.6183 3.21511C23.713 3.60564 22.7278 3.8867 21.713 3.99617C22.7666 3.37024 23.5556 2.38138 23.9319 1.21511C22.9433 1.80324 21.8602 2.21565 20.7308 2.43404C20.2587 1.92939 19.6878 1.52735 19.0535 1.253C18.4193 0.978643 17.7354 0.837841 17.0444 0.839368C14.2485 0.839368 12 3.10564 12 5.8867C12 6.27723 12.0473 6.66777 12.1243 7.04351C7.93786 6.82457 4.20414 4.82457 1.72189 1.76244C1.2696 2.53497 1.03258 3.41459 1.0355 4.30978C1.0355 6.06126 1.92603 7.60564 3.28402 8.51392C2.48374 8.4824 1.7022 8.26243 1.00296 7.87191V7.93404C1.00296 10.3867 2.73668 12.4192 5.04733 12.8867C4.61348 12.9994 4.16718 13.057 3.71893 13.0583C3.39053 13.0583 3.07988 13.0258 2.76627 12.9814C3.40532 14.9814 5.26627 16.434 7.48224 16.4814C5.74852 17.8394 3.57692 18.6382 1.21893 18.6382C0.795858 18.6382 0.405325 18.6234 0 18.576C2.23668 20.011 4.89053 20.8394 7.74852 20.8394C17.0266 20.8394 22.1035 13.153 22.1035 6.48138C22.1035 6.26244 22.1035 6.04351 22.0887 5.82457C23.071 5.10564 23.9319 4.21511 24.6183 3.21511Z" fill="#E3C980"/>
</svg>
